<?xml version="1.0" encoding="utf-8"?>
<!-- Generator: Adobe Illustrator 26.1.0, SVG Export Plug-In . SVG Version: 6.00 Build 0)  -->
<svg version="1.1" id="WBD_Logo_00000183961912273665312120000012258325746911121068_"
	 xmlns="http://www.w3.org/2000/svg" xmlns:xlink="http://www.w3.org/1999/xlink" x="0px" y="0px" viewBox="0 0 600.2 122.1"
	 style="enable-background:new 0 0 600.2 122.1;" xml:space="preserve">
<style type="text/css">
	.st0{fill:#FFFFFF;}
	.st1{fill:url(#SVGID_1_);}
	.st2{fill:#FFC200;}
</style>
<g id="WBD_Logo">
	<g id="Logotype">
		<g>
			<g>
				<path class="st0" d="M166.2,59l-18.3-44.9h8.6L167,40.9l11.5-28l11.4,28l10.4-26.8h8.3L190.3,59l-12.1-28.9L166.2,59z"/>
				<path class="st0" d="M248,57.3h-8.4l-4.4-9.3h-18.4l-4.4,9.3H204l22-44.9L248,57.3z M219.8,41.8h12.6L226,28.5L219.8,41.8z"/>
				<path class="st0" d="M261.6,57.3h-8V14.1h12.2c9.5,0,16.3,4.9,16.3,13.4c0,5.9-3.3,9.9-8.5,11.8l13.4,18h-9.3l-12.4-16.7h-3.8
					V57.3z M261.6,34.2h4.2c4.9,0,8.2-2.4,8.2-6.7c0-4.4-3.3-6.8-8.2-6.8h-4.2V34.2z"/>
				<path class="st0" d="M386.5,57.3h-8V14.1h12.2c9.5,0,16.3,4.9,16.3,13.4c0,5.9-3.3,9.9-8.5,11.8l13.4,18h-9.3l-12.4-16.7h-3.8
					V57.3z M386.5,34.2h4.2c4.9,0,8.2-2.4,8.2-6.7c0-4.4-3.3-6.8-8.2-6.8h-4.2V34.2z"/>
				<path class="st0" d="M324.3,14.1h7.8v44.8l-30.4-29.3v27.6h-7.8V12.4l30.4,29.3V14.1z"/>
				<path class="st0" d="M342.5,14.1h26.6v6.6h-18.8v11.2h17.3v6.7h-17.3v12.1h18.9v6.6h-26.7V14.1z"/>
				<path class="st0" d="M433.1,14.1h12.4c9.6,0,14.7,4.5,14.7,11.4c0,4.4-2.7,7.6-6,9c4.9,1.3,8.7,5,8.7,10.5
					c0,7.6-5.9,12.3-15.3,12.3h-14.5V14.1z M445,32.4c4.5,0,7.3-2,7.3-5.8c0-3.8-2.8-5.9-7.3-5.9h-4.1v11.6H445z M447.1,50.6
					c4.6,0,7.6-2.4,7.6-6.2c0-3.8-3.1-6.1-7.6-6.1h-6.2v12.4H447.1z"/>
				<path class="st0" d="M479.2,57.3h-8V14.1h12.2c9.5,0,16.3,4.9,16.3,13.4c0,5.9-3.3,9.9-8.5,11.8l13.4,18h-9.3L483,40.6h-3.8
					V57.3z M479.2,34.2h4.2c4.9,0,8.2-2.4,8.2-6.7c0-4.4-3.3-6.8-8.2-6.8h-4.2V34.2z"/>
				<path class="st0" d="M551.3,35.7c0,12.3-9.8,22.3-22.1,22.3c-12.2,0-22.1-10-22.1-22.3s9.8-22.3,22.1-22.3
					C541.5,13.4,551.3,23.4,551.3,35.7z M515.2,35.7c0,8.5,6.3,14.9,14.1,14.9c7.8,0,14.1-6.4,14.1-14.9s-6.3-14.9-14.1-14.9
					C521.4,20.8,515.2,27.2,515.2,35.7z"/>
				<path class="st0" d="M570,51.2c4.4,0,7.5-2,7.5-5.5c0-2.8-1.8-4-4.6-5.4l-7.2-3.4c-4.7-2.2-8.6-5-8.6-11.1
					c0-7.5,6.1-12.4,14.2-12.4c4.9,0,9.3,2.1,11.6,4.3v8.3c-3.3-3.3-7.6-5.7-11.9-5.7c-3.6,0-6.3,1.8-6.3,5c0,2.4,1.7,3.6,4.1,4.8
					l6.7,3.1c6.3,2.9,9.6,5.9,9.6,11.9c0,8-6.7,13-15.2,13c-5.5,0-10.3-2.1-13.2-4.3v-8.2C560.5,48.6,565.1,51.2,570,51.2z"/>
				<path class="st0" d="M600.2,52.6c0,2.8-2.2,5-5,5h-0.1c-2.8,0-5-2.2-5-5c0-2.8,2.2-5,5-5h0.1C598,47.7,600.2,49.9,600.2,52.6z"
					/>
			</g>
			<g>
				<path class="st0" d="M425.6,115h-8V71.9h12.2c9.5,0,16.3,4.9,16.3,13.4c0,5.9-3.3,9.9-8.5,11.8l13.4,18h-9.3l-12.4-16.7h-3.8
					V115z M425.6,92h4.2c4.9,0,8.2-2.4,8.2-6.7c0-4.4-3.3-6.8-8.2-6.8h-4.2V92z"/>
				<path class="st0" d="M381.2,71.9h26.6v6.6H389v11.2h17.3v6.7H389v12.1H408v6.6h-26.7V71.9z"/>
				<path class="st0" d="M331.1,93.4c0,12.3-9.8,22.3-22.1,22.3c-12.2,0-22.1-10-22.1-22.3s9.8-22.3,22.1-22.3
					C321.3,71.2,331.1,81.1,331.1,93.4z M294.9,93.4c0,8.5,6.3,14.9,14.1,14.9c7.8,0,14.1-6.4,14.1-14.9s-6.3-14.9-14.1-14.9
					C301.2,78.5,294.9,84.9,294.9,93.4z"/>
				<path class="st0" d="M166.6,71.9c12.3,0,22.2,9.3,22.2,21.6c0,12.3-9.9,21.6-22.2,21.6h-13.3V71.9H166.6z M161.3,78.5v29.9h4.8
					c8.7,0,14.7-6.7,14.7-15s-6-15-14.7-15H161.3z"/>
				<path class="st0" d="M205,71.9V115h-8V71.9H205z"/>
				<path class="st0" d="M226.4,108.9c4.4,0,7.5-2,7.5-5.5c0-2.8-1.8-4-4.6-5.4l-7.2-3.4c-4.7-2.2-8.6-5-8.6-11.1
					c0-7.5,6.2-12.4,14.2-12.4c4.9,0,9.3,2.1,11.6,4.3v8.3c-3.3-3.3-7.6-5.7-11.9-5.7c-3.6,0-6.3,1.8-6.3,5c0,2.4,1.7,3.6,4.1,4.8
					l6.7,3.1c6.3,2.9,9.6,5.9,9.6,11.9c0,8-6.7,13-15.2,13c-5.5,0-10.3-2.1-13.2-4.3v-8.2C216.9,106.3,221.5,108.9,226.4,108.9z"/>
				<path class="st0" d="M280.7,103.5v9.2c-3.2,2-7,3-11.2,3c-12.3,0-22.2-10-22.2-22.3c0-12.3,9.9-22.3,22.2-22.3
					c4.1,0,8,1.1,11.2,3v9.2c-2.5-2.8-6.4-4.6-11-4.6c-8.2,0-14.4,6.4-14.4,14.7c0,8.3,6.3,14.7,14.4,14.7
					C274.3,108.1,278.2,106.3,280.7,103.5z"/>
				<path class="st0" d="M331.8,71.9h8.8l13.4,28.9l13.3-28.9h8.5l-22,44.9L331.8,71.9z"/>
				<path class="st0" d="M465.7,115V95.6l-16.1-23.8h9l11.1,16.4l11.2-16.4h9l-16.1,23.8V115H465.7z"/>
			</g>
		</g>
	</g>
	<g id="Shield">
		<linearGradient id="SVGID_1_" gradientUnits="userSpaceOnUse" x1="8.0875" y1="60.6516" x2="118.3609" y2="60.6516">
			<stop  offset="0" style="stop-color:#4047FF"/>
			<stop  offset="1" style="stop-color:#04006C"/>
		</linearGradient>
		<path class="st1" d="M118.4,39.8c-0.8,5.7-3.5,24.5-17.3,42.9c-14,19-32.3,28.2-37.9,31c-5.5-2.8-23.9-12-37.9-31
			C11.6,64.4,8.9,45.6,8.1,39.8l8.3-4.5v-6.2l8.3-4.5v-6.2c11.4-5.5,24-9,38.5-11c14.5,1.9,27.1,5.5,38.5,11v6.2l8.3,4.5v6.2
			L118.4,39.8z"/>
		<g>
			<path class="st2" d="M117.5,30.9v-6.2l-8.3-4.5v-6.5l-4.2-2C92.9,6,79.6,2.2,64.2,0.1l-1-0.1l-1,0.1C46.9,2.2,33.5,6,21.5,11.8
				l-4.2,2v6.5L9,24.7v6.2l-9,4.8l0.7,5.1c2.4,17.2,8.7,32.8,18.7,46.3c10.1,13.7,23.7,24.9,40.5,33.3l3.3,1.7l3.3-1.7
				c16.8-8.4,30.4-19.6,40.5-33.3c10-13.5,16.3-29.1,18.7-46.3l0.7-5.1L117.5,30.9z M118.4,39.8c-0.8,5.7-3.5,24.5-17.3,42.9
				c-14,19-32.3,28.2-37.9,31c-5.5-2.8-23.9-12-37.9-31C11.6,64.4,8.9,45.6,8.1,39.8l8.3-4.5v-6.2l8.3-4.5v-6.2
				c11.4-5.5,24-9,38.5-11c14.5,1.9,27.1,5.5,38.5,11v6.2l8.3,4.5v6.2L118.4,39.8z"/>
		</g>
		<g>
			<path class="st2" d="M50.9,22.4l0.4,50.5l-0.4,0.2c-5.3-13.5-8.5-30.3-9.5-47.2c-2.6,1.2-5.4,2.6-8.3,4.4
				c1.2,15.3,3.8,28.7,8.5,41.5l-2.7,1.5c-7.1-9.9-11.7-21.9-14.8-36.2c-2.2,2-4.3,4.2-6.5,6.6c4.1,17.1,10.7,30.1,20.2,40.6
				l7.3-4.4c3.6,7.5,8.6,14.9,14.2,20.8V20.9C56.5,21.2,53.7,21.7,50.9,22.4z"/>
		</g>
		<g>
			<path class="st2" d="M98.1,48.5c3-3.3,3.6-5.7,3.6-8.6c0-4.1-3.4-7.8-8.4-11c-3-1.9-7.6-4.2-14.3-6.1c-3.8-1-7.9-1.7-12-1.8v79.9
				c16.8-8.6,36.7-32.3,36.8-44.4C104,52.8,102.1,50.4,98.1,48.5z M75.4,30.5c4.1,0,17.5,4.2,17.5,9.6c0,1.9-1.7,4.7-7,7.5
				l-10.5,5.6V30.5z M85.8,74.8c-2.4,2.7-6.2,6.9-10.4,10.1V62c0,0,15.2-8.5,15.7-8.9c4.5,1.2,4.3,4.5,4.3,4.8
				C95.4,62.1,91.1,68.6,85.8,74.8z"/>
		</g>
	</g>
</g>
</svg>
