<?xml version="1.0" encoding="UTF-8"?>
<svg width="143px" height="25px" viewBox="0 0 143 25" version="1.1" xmlns="http://www.w3.org/2000/svg" xmlns:xlink="http://www.w3.org/1999/xlink">
    <!-- Generator: Sketch 63.1 (92452) - https://sketch.com -->
    <title>d. logo / main / red</title>
    <desc>Created with Sketch.</desc>
    <g id="Symbols" stroke="none" stroke-width="1" fill="none" fill-rule="evenodd">
        <g id="comp/header/tablet/basic" transform="translate(-312.000000, -20.000000)" fill="#EC0000">
            <g id="d.-logo-/-main-/-red" transform="translate(299.487316, 12.000000)">
                <path d="M155,19.2289781 C155,20.0436079 154.901799,21.0307516 154.754498,21.5489933 C154.11602,21.4748088 153.477368,21.4501389 152.715965,21.4501389 C152.052937,21.4501389 151.389735,21.4996536 150.726706,21.598158 L150.726706,32.1610503 L148.025145,32.1610503 L148.025145,19.8214043 C149.179524,19.4265119 151.119683,19.1304737 152.642315,19.1304737 C153.477368,19.1304737 154.410622,19.1551436 155,19.2289781 Z M136.874674,24.6091037 L142.96555,24.6091037 C142.96555,22.5854766 141.884995,21.4007992 140.018313,21.4007992 C138.102704,21.4007992 137.0958,22.5114671 136.874674,24.6091037 Z M145.544012,26.8796042 L136.923775,26.8796042 C137.267651,29.0760951 138.544607,30.1372483 140.951393,30.1372483 C142.425098,30.1372483 143.923354,29.8163654 145.273961,29.1994443 C145.17576,29.9152197 145.028459,30.8528488 144.856434,31.6671286 C143.628404,32.2348849 142.326898,32.4569135 140.877742,32.4569135 C136.358947,32.4569135 134.173287,29.9397146 134.173287,25.7197716 C134.173287,22.0425651 135.867944,19.1304737 140.165614,19.1304737 C144.021381,19.1304737 145.691487,21.6721675 145.691487,24.7819676 C145.691487,25.5470827 145.642387,26.1640037 145.544012,26.8796042 Z M129.285369,29.2979487 L129.285369,21.6970123 C128.57324,21.5489933 127.836387,21.4501389 127.124085,21.4501389 C124.447073,21.4501389 123.170117,23.1285631 123.170117,25.9419751 C123.170117,28.4589991 124.177196,30.2361027 126.583981,30.2361027 C127.664536,30.2361027 128.54869,29.8657051 129.285369,29.2979487 Z M131.962206,14.8855109 L131.962206,32.1610503 L129.48177,32.1610503 L129.334643,30.5814805 C128.646717,31.741488 127.590712,32.4569135 125.822578,32.4569135 C122.580914,32.4569135 120.419455,30.0877337 120.419455,25.9419751 C120.419455,21.598158 122.72804,19.1304737 127.27156,19.1304737 C127.983688,19.1304737 128.646717,19.2044833 129.285369,19.3278325 L129.285369,15.2557336 C130.120422,14.9596954 131.078052,14.8855109 131.962206,14.8855109 Z M118.257475,23.8688334 L118.257475,32.1610503 L115.556262,32.1610503 L115.556262,24.3377354 C115.556262,22.3881179 114.917609,21.4501389 112.216048,21.4501389 C111.57757,21.4501389 110.816167,21.5243234 110.079488,21.6476726 L110.079488,32.1610503 L107.377927,32.1610503 L107.377927,19.8214043 C109.09696,19.401842 110.988018,19.1304737 112.289698,19.1304737 C116.808668,19.1304737 118.257475,20.8825575 118.257475,23.8688334 Z M101.728606,29.3474634 L101.728606,21.598158 C101.163952,21.4996536 100.549676,21.4501389 99.7886212,21.4501389 C96.988685,21.4501389 95.6871787,23.1779028 95.6871787,25.9419751 C95.6871787,28.4589991 96.6942573,30.2361027 99.1008687,30.2361027 C100.156699,30.2361027 101.016651,29.8905499 101.728606,29.3474634 Z M104.430167,19.8214043 L104.430167,32.1610503 L101.949731,32.1610503 L101.802604,30.6803348 C101.114678,31.7661579 100.058673,32.4569135 98.3396399,32.4569135 C95.0978009,32.4569135 92.936691,30.0877337 92.936691,25.9419751 C92.936691,21.598158 95.2451018,19.1304737 99.7886212,19.1304737 C101.556755,19.1304737 103.00591,19.3278325 104.430167,19.8214043 Z M89.939657,30.1372483 C90.7254361,30.1372483 91.462463,29.9890543 92.0518408,29.7672007 C91.9781903,30.507296 91.8798156,31.3465956 91.7325147,32.062021 C90.9956618,32.3582341 90.2098828,32.4569135 89.4484799,32.4569135 C86.8207429,32.4569135 85.1506361,31.2477412 85.1506361,28.2369705 L85.1506361,15.2804034 C85.9856895,15.0090351 87.0171442,14.8855109 87.8523717,14.8855109 L87.8523717,19.5498611 L92.1254912,19.5498611 C92.0763909,20.3889857 92.0027405,21.1541008 91.8798156,21.8697012 L87.8523717,21.8697012 L87.8523717,27.9162625 C87.8523717,29.5203273 88.6381507,30.1372483 89.939657,30.1372483 Z M82.4483781,23.8688334 L82.4483781,32.1610503 L79.7469907,32.1610503 L79.7469907,24.3377354 C79.7469907,22.3881179 79.1083385,21.4501389 76.4069511,21.4501389 C75.7682989,21.4501389 75.00707,21.5243234 74.2702172,21.6476726 L74.2702172,32.1610503 L71.5688298,32.1610503 L71.5688298,19.8214043 C73.2878629,19.401842 75.1789211,19.1304737 76.4806016,19.1304737 C80.9995708,19.1304737 82.4483781,20.8825575 82.4483781,23.8688334 Z M65.9195088,29.3474634 L65.9195088,21.598158 C65.3546812,21.4996536 64.7407532,21.4501389 63.9793503,21.4501389 C61.1795881,21.4501389 59.8780818,23.1779028 59.8780818,25.9419751 C59.8780818,28.4589991 60.8849863,30.2361027 63.2917719,30.2361027 C64.3477767,30.2361027 65.2073803,29.8905499 65.9195088,29.3474634 Z M68.6210703,19.8214043 L68.6210703,32.1610503 L66.1406343,32.1610503 L65.9933334,30.6803348 C65.3055809,31.7661579 64.2494019,32.4569135 62.5303689,32.4569135 C59.2885299,32.4569135 57.12742,30.0877337 57.12742,25.9419751 C57.12742,21.598158 59.4358308,19.1304737 63.9793503,19.1304737 C65.7476577,19.1304737 67.1966391,19.3278325 68.6210703,19.8214043 Z M44.0858912,31.6179638 C44.1349915,30.6061503 44.2822924,29.9152197 44.5523441,29.1254348 C45.927675,29.7672007 47.6959825,30.0877337 49.0467632,30.0877337 C51.330798,30.0877337 52.6079283,29.3474634 52.6079283,27.8914177 C52.6079283,26.4600419 51.6746743,25.7936061 49.3660894,24.7819676 L48.1135092,24.239056 C45.8049243,23.2270675 44.2331921,21.9190409 44.2331921,19.3031626 C44.2331921,16.4899256 46.1735248,14.6881522 50.1520425,14.6881522 C51.7483248,14.6881522 53.2464064,14.9103557 54.6462875,15.4039276 C54.572637,16.3910713 54.400786,17.1561864 54.1551103,17.8717868 C52.8288797,17.378215 51.2571476,17.1561864 50.1273182,17.1561864 C47.9907584,17.1561864 47.0084041,17.995311 47.0084041,19.3031626 C47.0084041,20.5865194 47.9662083,21.3267897 49.6852413,22.0674099 L51.0116461,22.6348163 C54.1305602,23.9675128 55.4320665,25.3742188 55.4320665,27.7680685 C55.4320665,30.6061503 53.2955067,32.5557678 49.1204137,32.5557678 C47.1066047,32.5557678 45.4612221,32.2597297 44.0858912,31.6179638 Z M30.9876011,16.8486006 L26.8934713,9.72286492 C26.5812839,9.1794285 26.365556,8.5971502 26.2457652,8 L26.0747847,8.29778776 C25.0614379,10.0615941 25.0614379,12.23429 26.0746105,13.9980964 L29.3500536,19.6989299 C30.3632263,21.4625613 30.3632263,23.6356072 29.3500536,25.3994135 L29.178899,25.6972013 C29.0591082,25.1000511 28.8433803,24.5177728 28.5311929,23.9743364 L23.6182023,15.4233485 C23.3060149,14.8799121 23.0904611,14.2976338 22.9704962,13.7004836 L22.7995157,13.9982714 C21.7896512,15.756129 21.7865172,17.9202517 22.7895911,19.6809087 L26.0747847,25.3994135 C27.0881314,27.1630449 27.0881314,29.3360908 26.0747847,31.0998971 L25.90363,31.3976849 C25.7838392,30.8005347 25.5681113,30.2182564 25.2559239,29.6749949 L21.1619682,22.5490842 C20.6128109,21.593434 20.3619118,20.5175838 20.4078781,19.4517066 C16.0250664,20.6024411 13,23.0456305 13,25.8744392 C13,29.8097168 18.8537315,33 26.0747847,33 C33.2956637,33 39.1493952,29.8097168 39.1493952,25.8744392 C39.1493952,23.0454555 36.1246771,20.6015663 31.7415171,19.4510067 C31.7026896,18.55012 31.4517905,17.6564068 30.9876011,16.8486006 Z" id="🔒-color-locked"></path>
            </g>
        </g>
    </g>
</svg>